<svg xmlns="http://www.w3.org/2000/svg" width="20" height="30" viewBox="0 0 20 30"><defs><style>.a{fill:#2b2d42;}</style></defs><path class="a" d="M27.007,11.635A1.361,1.361,0,0,0,27,13.551l6.336,6.343H9.219a1.354,1.354,0,0,0,0,2.708h24.1l-6.336,6.343A1.37,1.37,0,0,0,27,30.862a1.349,1.349,0,0,0,1.907-.01l8.586-8.645h0a1.521,1.521,0,0,0,.281-.427,1.292,1.292,0,0,0,.1-.521,1.357,1.357,0,0,0-.386-.948L28.9,11.666A1.328,1.328,0,0,0,27.007,11.635Z" transform="translate(31.252 -7.875) rotate(90)"/></svg>