<svg xmlns="http://www.w3.org/2000/svg" width="52" height="45" viewBox="0 0 52 45"><defs><style>.a{fill:#6e44ff;}</style></defs><g transform="translate(0 -34.571)"><g transform="translate(0 34.571)"><path class="a" d="M.011,67.171A12.417,12.417,0,1,0,8.382,55.45c2.786-16,15.247-26.324,3.7-17.83C-.731,47.038,0,66.792.012,67.154.012,67.16.011,67.165.011,67.171Z" transform="translate(0 -34.571)"/><path class="a" d="M266.072,67.171a12.417,12.417,0,1,0,8.371-11.722c2.786-16,15.247-26.324,3.7-17.83-12.808,9.419-12.08,29.173-12.066,29.535C266.072,67.16,266.072,67.165,266.072,67.171Z" transform="translate(-238.833 -34.571)"/></g></g></svg>