<svg xmlns="http://www.w3.org/2000/svg" width="52" height="45" viewBox="0 0 52 45">
  <defs>
    <style>
      .cls-1 {
        fill: #ef233c;
      }
    </style>
  </defs>
  <g id="quote_1_" data-name="quote (1)" transform="translate(0 -34.571)">
    <g id="Group_277" data-name="Group 277" transform="translate(0 34.571)">
      <path id="Path_1923" data-name="Path 1923" class="cls-1" d="M.011,67.171A12.417,12.417,0,1,0,8.382,55.45c2.786-16,15.247-26.324,3.7-17.83C-.731,47.038,0,66.792.012,67.154.012,67.16.011,67.165.011,67.171Z" transform="translate(0 -34.571)"/>
      <path id="Path_1924" data-name="Path 1924" class="cls-1" d="M266.072,67.171a12.417,12.417,0,1,0,8.371-11.722c2.786-16,15.247-26.324,3.7-17.83-12.808,9.419-12.08,29.173-12.066,29.535C266.072,67.16,266.072,67.165,266.072,67.171Z" transform="translate(-238.833 -34.571)"/>
    </g>
  </g>
</svg>
