<svg xmlns="http://www.w3.org/2000/svg" width="12.5" height="10" viewBox="0 0 12.5 10"><defs><style>.a{fill:#8d99ae;}</style></defs><path class="a" d="M12.625,4H3.875A1.875,1.875,0,0,0,2,5.875v6.25A1.875,1.875,0,0,0,3.875,14h8.75A1.875,1.875,0,0,0,14.5,12.125V5.875A1.875,1.875,0,0,0,12.625,4Zm-.256,1.25L8.694,8.925a.625.625,0,0,1-.888,0L4.131,5.25Zm.881,6.875a.625.625,0,0,1-.625.625H3.875a.625.625,0,0,1-.625-.625V6.131L6.925,9.806a1.875,1.875,0,0,0,2.65,0L13.25,6.131Z" transform="translate(-2 -4)"/></svg>