<svg xmlns="http://www.w3.org/2000/svg" width="50" height="50" viewBox="0 0 50 50"><defs><style>.a,.d{fill:none;}.a{stroke:#2b2d42;stroke-width:2px;}.b{fill:#2b2d42;}.c{stroke:none;}</style></defs><g transform="translate(-1120 -609)"><g class="a" transform="translate(1120 609)"><circle class="c" cx="25" cy="25" r="25"/><circle class="d" cx="25" cy="25" r="24"/></g><path class="b" d="M14.034,11.462a.733.733,0,0,1,.006,1.054l-3.59,3.489H24.113a.745.745,0,1,1,0,1.489H10.455l3.59,3.489a.738.738,0,0,1-.006,1.054.781.781,0,0,1-1.081-.006L8.093,17.277h0a.835.835,0,0,1-.159-.235.692.692,0,0,1-.059-.286.735.735,0,0,1,.218-.521l4.866-4.755A.768.768,0,0,1,14.034,11.462Z" transform="translate(1129.125 617.748)"/></g></svg>