<svg xmlns="http://www.w3.org/2000/svg" width="98.1" height="32.212" viewBox="0 0 98.1 32.212"><defs><style>.a{fill:#333;}</style></defs><path class="a" d="M56.564-555.587H49.128v21.272h7.436c6.8,0,11.215-4.175,11.215-10.605C67.779-551.382,63.36-555.587,56.564-555.587Zm-3.169,17.645v-14.049h3.017c4.48,0,7.009,2.651,7.009,7.07s-2.53,6.979-7.009,6.979Zm16.365,3.627h4.267V-551.2H69.76Zm2.164-18.895a2.52,2.52,0,0,0,2.621-2.5,2.52,2.52,0,0,0-2.621-2.5,2.5,2.5,0,0,0-2.621,2.5A2.5,2.5,0,0,0,71.923-553.21Zm3.992,10.392c0,5.272,3.413,8.777,7.71,8.777a6.659,6.659,0,0,0,5.577-2.773v2.621c0,3.139-1.829,4.48-4.175,4.48-2.133,0-3.718-1.006-4.145-2.53H76.647c.427,3.87,3.748,6.247,8.5,6.247,5.546,0,8.35-3.627,8.35-8.2V-551.2H89.2v2.408a6.606,6.606,0,0,0-5.577-2.682c-4.3,0-7.71,3.383-7.71,8.655Zm13.287.061c0,3.2-2.133,4.968-4.48,4.968-2.286,0-4.449-1.828-4.449-5.028s2.164-4.906,4.45-4.906c2.347,0,4.48,1.768,4.48,4.967Zm14.446,3.352L99.29-551.2H94.506l6.765,16.457-3.657,8.411h4.541L112.607-551.2h-4.541Zm10.7-.152c0,3.87,2.164,5.242,5.394,5.242h2.682v-3.6H120.44c-1.341,0-1.8-.488-1.8-1.615v-8.167h3.779v-3.5h-3.779v-4.175h-4.3v4.175h-2.011v3.5h2.011Zm9.935,5.242h4.267v-22.552h-4.267Zm14.506-13.653a3.751,3.751,0,0,1,4.023,3.627h-8.015a3.921,3.921,0,0,1,3.992-3.627Zm8.015,8.35h-4.6a3.479,3.479,0,0,1-3.383,2.042,3.95,3.95,0,0,1-4.053-3.9h12.342a9.971,9.971,0,0,0,.122-1.646,7.926,7.926,0,0,0-8.32-8.35c-5,0-8.472,3.383-8.472,8.716,0,5.3,3.565,8.716,8.472,8.716a7.847,7.847,0,0,0,7.893-5.577Z" transform="translate(-49.128 558.208)"/></svg>