<svg xmlns="http://www.w3.org/2000/svg" width="35.25" height="30.504" viewBox="0 0 35.25 30.504"><defs><style>.a{fill:#ef233c;}</style></defs><path class="a" d="M.008,56.67a8.417,8.417,0,1,0,5.674-7.946C7.57,37.875,16.017,30.879,8.187,36.637-.5,43.022,0,56.413.008,56.658.008,56.662.008,56.666.008,56.67Z" transform="translate(0 -34.571)"/><path class="a" d="M266.068,56.67a8.417,8.417,0,1,0,5.674-7.946c1.889-10.849,10.335-17.845,2.505-12.087-8.682,6.385-8.189,19.776-8.179,20.021C266.069,56.662,266.068,56.666,266.068,56.67Z" transform="translate(-247.603 -34.571)"/></svg>