<svg xmlns="http://www.w3.org/2000/svg" width="14.646" height="12.653" viewBox="0 0 14.646 12.653"><defs><style>.a{fill:#ef233c;}</style></defs><path class="a" d="M273.034,38.061s0,0,0,0a3.5,3.5,0,1,0-2.357,3.3c-.784,4.5-4.293,7.4-1.041,5.013C273.243,43.717,273.038,38.163,273.034,38.061Z" transform="translate(-258.391 -34.57)"/><path class="a" d="M3.486,41.543a3.473,3.473,0,0,0,1.129-.191c-.785,4.5-4.294,7.4-1.041,5.013,3.607-2.648,3.4-8.2,3.4-8.3,0,0,0,0,0,0a3.486,3.486,0,1,0-3.486,3.486Z" transform="translate(0 -34.57)"/></svg>