<svg xmlns="http://www.w3.org/2000/svg" width="50" height="50" viewBox="0 0 50 50"><defs><style>.a{fill:#edf2f4;}.b{fill:#2b2d42;}</style></defs><g transform="translate(-1186 -1848)"><circle class="a" cx="25" cy="25" r="25" transform="translate(1186 1848)"/><path class="b" d="M18.716,11.462a.733.733,0,0,0-.006,1.054l3.59,3.489H8.637a.745.745,0,1,0,0,1.489H22.295L18.7,20.983a.738.738,0,0,0,.006,1.054.781.781,0,0,0,1.081-.006l4.866-4.755h0a.835.835,0,0,0,.159-.235.692.692,0,0,0,.059-.286.735.735,0,0,0-.218-.521l-4.866-4.755A.768.768,0,0,0,18.716,11.462Z" transform="translate(1195.125 1856.748)"/></g></svg>