<svg xmlns="http://www.w3.org/2000/svg" width="23.313" height="18.948" viewBox="0 0 23.313 18.948"><defs><style>.a{fill:#8d99ae;}</style></defs><path class="a" d="M23.268,5.625a9.714,9.714,0,0,1-2.744.753,4.816,4.816,0,0,0,2.1-2.645,9.872,9.872,0,0,1-3.037,1.15A4.778,4.778,0,0,0,11.32,8.145a4.891,4.891,0,0,0,.123,1.092A13.536,13.536,0,0,1,1.593,4.258a4.684,4.684,0,0,0-.647,2.4,4.78,4.78,0,0,0,2.125,3.979,4.764,4.764,0,0,1-2.164-.6V10.1A4.782,4.782,0,0,0,4.74,14.79a4.823,4.823,0,0,1-2.149.083,4.8,4.8,0,0,0,4.472,3.319,9.585,9.585,0,0,1-5.927,2.045A10.145,10.145,0,0,1,0,20.172a13.594,13.594,0,0,0,7.341,2.146,13.5,13.5,0,0,0,13.6-13.585c0-.2,0-.408-.015-.612a9.651,9.651,0,0,0,2.39-2.475l-.046-.019Z" transform="translate(0 -3.369)"/></svg>